# xmcd
#
# Track frame offsets: 
#        150
#        12137
#        29100
#        39523
#        51280
#        65630
#        75519
#        85981
#        103971
#        114712
#        125466
#        136291
#        148214
#        161849
#        177389
#        188974
#        198597
#        210304
#        221237
#        232904
#
# Disc length: 3232 seconds
#
# Revision: 0
# Processed by: cddbd v1.5.2PL0 Copyright (c) Steve Scherf et al.
# Submitted via: ExactAudioCopyFreeDBPlugin 1.0
#
DISCID=300c9e14
DTITLE=Various Artist - The Best Northern Soul Album
DYEAR=1900
DGENRE=Northern Soul
TTITLE0=Chairman Of The Board - Give Me Just A Little More Time
TTITLE1=The Trammps - Hold Back The Night
TTITLE2=Al Green - Don't Leave Me
TTITLE3=The Metros - Since I Found My Baby
TTITLE4=Shirley And The Shirelles - Look What You've Done To My Heart
TTITLE5=Reperata and The Delrons - Panic
TTITLE6=Roy Hamilton - Crackin' Up Over You
TTITLE7=Taj Mahal - Ain't That A Lot Of Love
TTITLE8=The Glories - I Worship You Baby
TTITLE9=Liz Verdi - Think It Over (And Be Sure)
TTITLE10=Larry Williams and Johnny ‘Guitar’ Watson - Too Late
TTITLE11=Honey Townsend - The World Again
TTITLE12=Derek And Ray - Interplay
TTITLE13=Bobby Lester - Hang Up Your Hang Ups
TTITLE14=Lynne Randell - Stranger In My Arms
TTITLE15=Oscar Toney Jr. - No Sad Song
TTITLE16=Peaches and Herb - I Need Your Love So Desperately
TTITLE17=Willie Kendrick - Change Your Ways
TTITLE18=Jackie Day - Before It's Too Late
TTITLE19=Winfield Parker - SOS (Stop Her On Sight)
EXTD=
EXTT0=
EXTT1=
EXTT2=
EXTT3=
EXTT4=
EXTT5=
EXTT6=
EXTT7=
EXTT8=
EXTT9=
EXTT10=
EXTT11=
EXTT12=
EXTT13=
EXTT14=
EXTT15=
EXTT16=
EXTT17=
EXTT18=
EXTT19=
PLAYORDER=
